<svg xmlns="http://www.w3.org/2000/svg" xmlns:xlink="http://www.w3.org/1999/xlink" width="500" zoomAndPan="magnify" viewBox="0 0 375 374.999991" height="500" preserveAspectRatio="xMidYMid meet" version="1.0"><defs><g/></defs><rect x="-37.5" width="450" fill="#ffffff" y="-37.499999" height="449.999989" fill-opacity="1"/><rect x="-37.5" width="450" fill="#0d0221" y="-37.499999" height="449.999989" fill-opacity="1"/><g fill="#01cdfe" fill-opacity="1"><g transform="translate(37.60832, 204.374987)"><g><path d="M 24.890625 -14.4375 L 21 -14.4375 C 20.382812 -15.875 19.425781 -17.035156 18.125 -17.921875 C 16.832031 -18.804688 15.519531 -19.25 14.1875 -19.25 C 12.851562 -19.25 11.707031 -19.046875 10.75 -18.640625 C 9.789062 -18.191406 8.972656 -17.609375 8.296875 -16.890625 C 6.753906 -15.285156 5.984375 -13.410156 5.984375 -11.265625 C 5.984375 -9.078125 6.753906 -7.195312 8.296875 -5.625 C 9.796875 -4.019531 11.640625 -3.21875 13.828125 -3.21875 C 15.253906 -3.21875 16.582031 -3.597656 17.8125 -4.359375 C 19.007812 -5.109375 19.953125 -6.113281 20.640625 -7.375 L 24.6875 -7.375 C 23.414062 -3.757812 20.972656 -1.335938 17.359375 -0.109375 C 16.234375 0.304688 14.953125 0.515625 13.515625 0.515625 C 12.078125 0.515625 10.660156 0.191406 9.265625 -0.453125 C 7.867188 -1.066406 6.65625 -1.921875 5.625 -3.015625 C 3.40625 -5.335938 2.296875 -8.085938 2.296875 -11.265625 C 2.296875 -14.472656 3.40625 -17.222656 5.625 -19.515625 C 7.882812 -21.828125 10.617188 -22.984375 13.828125 -22.984375 C 16.421875 -22.984375 18.757812 -22.179688 20.84375 -20.578125 C 22.820312 -19.046875 24.171875 -17 24.890625 -14.4375 Z M 24.890625 -14.4375 "/></g></g></g><g fill="#01cdfe" fill-opacity="1"><g transform="translate(59.469, 204.374987)"><g><path d="M 22.265625 -11.359375 C 22.265625 -13.617188 21.460938 -15.550781 19.859375 -17.15625 C 18.253906 -18.757812 16.328125 -19.5625 14.078125 -19.5625 C 11.828125 -19.5625 9.898438 -18.757812 8.296875 -17.15625 C 6.691406 -15.550781 5.890625 -13.617188 5.890625 -11.359375 C 5.890625 -9.140625 6.691406 -7.226562 8.296875 -5.625 C 9.898438 -4.019531 11.828125 -3.21875 14.078125 -3.21875 C 16.328125 -3.21875 18.253906 -4.019531 19.859375 -5.625 C 21.460938 -7.226562 22.265625 -9.140625 22.265625 -11.359375 Z M 25.859375 -11.359375 C 25.859375 -8.085938 24.710938 -5.328125 22.421875 -3.078125 C 20.066406 -0.785156 17.285156 0.359375 14.078125 0.359375 C 10.867188 0.359375 8.101562 -0.785156 5.78125 -3.078125 C 3.457031 -5.328125 2.296875 -8.085938 2.296875 -11.359375 C 2.296875 -14.609375 3.457031 -17.394531 5.78125 -19.71875 C 8.070312 -22 10.835938 -23.140625 14.078125 -23.140625 C 17.316406 -23.140625 20.097656 -22 22.421875 -19.71875 C 24.710938 -17.394531 25.859375 -14.609375 25.859375 -11.359375 Z M 25.859375 -11.359375 "/></g></g></g><g fill="#01cdfe" fill-opacity="1"><g transform="translate(82.814459, 204.374987)"><g><path d="M 32.40625 -0.109375 L 32.40625 -14.1875 C 32.40625 -16.507812 31.671875 -18.144531 30.203125 -19.09375 C 29.691406 -19.40625 28.910156 -19.5625 27.859375 -19.5625 C 26.796875 -19.5625 25.804688 -19.253906 24.890625 -18.640625 C 23.960938 -18.023438 23.226562 -17.238281 22.6875 -16.28125 C 22.476562 -15.90625 22.289062 -15.492188 22.125 -15.046875 C 22.125 -14.773438 22.125 -14.488281 22.125 -14.1875 L 22.125 -0.109375 L 18.53125 -0.109375 L 18.53125 -14.1875 C 18.53125 -16.507812 17.796875 -18.144531 16.328125 -19.09375 C 15.816406 -19.40625 15.035156 -19.5625 13.984375 -19.5625 C 12.921875 -19.5625 11.929688 -19.253906 11.015625 -18.640625 C 10.085938 -18.023438 9.351562 -17.238281 8.8125 -16.28125 C 8.09375 -15.019531 7.628906 -13.46875 7.421875 -11.625 L 7.421875 -0.109375 L 3.84375 -0.109375 L 3.84375 -22.625 L 7.421875 -22.625 L 7.421875 -19.046875 C 8.109375 -20.203125 8.960938 -21.140625 9.984375 -21.859375 C 11.140625 -22.710938 12.503906 -23.140625 14.078125 -23.140625 C 15.648438 -23.140625 16.914062 -22.898438 17.875 -22.421875 C 18.820312 -21.910156 19.625 -21.25 20.28125 -20.4375 C 20.613281 -19.957031 20.921875 -19.425781 21.203125 -18.84375 C 21.878906 -20.070312 22.765625 -21.078125 23.859375 -21.859375 C 25.015625 -22.710938 26.378906 -23.140625 27.953125 -23.140625 C 29.523438 -23.140625 30.789062 -22.898438 31.75 -22.421875 C 32.695312 -21.910156 33.5 -21.25 34.15625 -20.4375 C 35.382812 -18.832031 36 -16.75 36 -14.1875 L 36 -0.109375 Z M 32.40625 -0.109375 "/></g></g></g><g fill="#01cdfe" fill-opacity="1"><g transform="translate(117.065359, 204.374987)"><g><path d="M 7.421875 12.796875 L 3.84375 12.796875 L 3.84375 -22.53125 L 7.421875 -22.53125 L 7.421875 -18.6875 C 7.628906 -18.957031 7.851562 -19.210938 8.09375 -19.453125 C 10.207031 -21.847656 12.816406 -23.046875 15.921875 -23.046875 C 19.023438 -23.046875 21.65625 -21.847656 23.8125 -19.453125 C 25.851562 -17.128906 26.875 -14.398438 26.875 -11.265625 C 26.875 -8.117188 25.851562 -5.390625 23.8125 -3.078125 C 21.65625 -0.679688 19.023438 0.515625 15.921875 0.515625 C 12.816406 0.515625 10.207031 -0.679688 8.09375 -3.078125 C 7.851562 -3.316406 7.628906 -3.570312 7.421875 -3.84375 Z M 23.296875 -11.265625 C 23.296875 -13.453125 22.546875 -15.363281 21.046875 -17 C 19.503906 -18.632812 17.609375 -19.453125 15.359375 -19.453125 C 13.109375 -19.453125 11.234375 -18.632812 9.734375 -17 C 8.191406 -15.363281 7.421875 -13.453125 7.421875 -11.265625 C 7.421875 -9.078125 8.191406 -7.164062 9.734375 -5.53125 C 11.234375 -3.894531 13.109375 -3.078125 15.359375 -3.078125 C 17.609375 -3.078125 19.503906 -3.894531 21.046875 -5.53125 C 22.546875 -7.164062 23.296875 -9.078125 23.296875 -11.265625 Z M 23.296875 -11.265625 "/></g></g></g><g fill="#01cdfe" fill-opacity="1"><g transform="translate(141.434802, 204.374987)"><g><path d="M 7.421875 0 L 3.84375 0 L 3.84375 -38.40625 L 7.421875 -38.40625 Z M 7.421875 0 "/></g></g></g><g fill="#01cdfe" fill-opacity="1"><g transform="translate(147.884497, 204.374987)"><g><path d="M 25.859375 -11.78125 L 25.859375 -9.875 L 6.046875 -9.875 C 6.378906 -7.9375 7.316406 -6.351562 8.859375 -5.125 C 10.429688 -3.851562 12.171875 -3.21875 14.078125 -3.21875 C 15.378906 -3.21875 16.625 -3.523438 17.8125 -4.140625 C 18.976562 -4.722656 19.953125 -5.546875 20.734375 -6.609375 L 24.828125 -6.609375 C 23.878906 -4.453125 22.445312 -2.757812 20.53125 -1.53125 C 18.582031 -0.269531 16.617188 0.359375 14.640625 0.359375 C 12.628906 0.359375 10.925781 0.0507812 9.53125 -0.5625 C 8.09375 -1.175781 6.84375 -2.015625 5.78125 -3.078125 C 3.457031 -5.328125 2.296875 -8.085938 2.296875 -11.359375 C 2.296875 -14.609375 3.457031 -17.394531 5.78125 -19.71875 C 8.070312 -22 10.835938 -23.140625 14.078125 -23.140625 C 17.222656 -23.140625 19.972656 -22.03125 22.328125 -19.8125 C 24.679688 -17.5625 25.859375 -14.882812 25.859375 -11.78125 Z M 22.0625 -12.953125 C 21.65625 -14.867188 20.703125 -16.457031 19.203125 -17.71875 C 17.703125 -18.945312 15.992188 -19.5625 14.078125 -19.5625 C 11.140625 -19.5625 8.835938 -18.242188 7.171875 -15.609375 C 6.660156 -14.796875 6.300781 -13.910156 6.09375 -12.953125 Z M 22.0625 -12.953125 "/></g></g></g><g fill="#01cdfe" fill-opacity="1"><g transform="translate(170.973958, 204.374987)"><g><path d="M 32.40625 -0.109375 L 32.40625 -14.1875 C 32.40625 -16.507812 31.671875 -18.144531 30.203125 -19.09375 C 29.691406 -19.40625 28.910156 -19.5625 27.859375 -19.5625 C 26.796875 -19.5625 25.804688 -19.253906 24.890625 -18.640625 C 23.960938 -18.023438 23.226562 -17.238281 22.6875 -16.28125 C 22.476562 -15.90625 22.289062 -15.492188 22.125 -15.046875 C 22.125 -14.773438 22.125 -14.488281 22.125 -14.1875 L 22.125 -0.109375 L 18.53125 -0.109375 L 18.53125 -14.1875 C 18.53125 -16.507812 17.796875 -18.144531 16.328125 -19.09375 C 15.816406 -19.40625 15.035156 -19.5625 13.984375 -19.5625 C 12.921875 -19.5625 11.929688 -19.253906 11.015625 -18.640625 C 10.085938 -18.023438 9.351562 -17.238281 8.8125 -16.28125 C 8.09375 -15.019531 7.628906 -13.46875 7.421875 -11.625 L 7.421875 -0.109375 L 3.84375 -0.109375 L 3.84375 -22.625 L 7.421875 -22.625 L 7.421875 -19.046875 C 8.109375 -20.203125 8.960938 -21.140625 9.984375 -21.859375 C 11.140625 -22.710938 12.503906 -23.140625 14.078125 -23.140625 C 15.648438 -23.140625 16.914062 -22.898438 17.875 -22.421875 C 18.820312 -21.910156 19.625 -21.25 20.28125 -20.4375 C 20.613281 -19.957031 20.921875 -19.425781 21.203125 -18.84375 C 21.878906 -20.070312 22.765625 -21.078125 23.859375 -21.859375 C 25.015625 -22.710938 26.378906 -23.140625 27.953125 -23.140625 C 29.523438 -23.140625 30.789062 -22.898438 31.75 -22.421875 C 32.695312 -21.910156 33.5 -21.25 34.15625 -20.4375 C 35.382812 -18.832031 36 -16.75 36 -14.1875 L 36 -0.109375 Z M 32.40625 -0.109375 "/></g></g></g><g fill="#01cdfe" fill-opacity="1"><g transform="translate(205.224863, 204.374987)"><g><path d="M 25.859375 -11.78125 L 25.859375 -9.875 L 6.046875 -9.875 C 6.378906 -7.9375 7.316406 -6.351562 8.859375 -5.125 C 10.429688 -3.851562 12.171875 -3.21875 14.078125 -3.21875 C 15.378906 -3.21875 16.625 -3.523438 17.8125 -4.140625 C 18.976562 -4.722656 19.953125 -5.546875 20.734375 -6.609375 L 24.828125 -6.609375 C 23.878906 -4.453125 22.445312 -2.757812 20.53125 -1.53125 C 18.582031 -0.269531 16.617188 0.359375 14.640625 0.359375 C 12.628906 0.359375 10.925781 0.0507812 9.53125 -0.5625 C 8.09375 -1.175781 6.84375 -2.015625 5.78125 -3.078125 C 3.457031 -5.328125 2.296875 -8.085938 2.296875 -11.359375 C 2.296875 -14.609375 3.457031 -17.394531 5.78125 -19.71875 C 8.070312 -22 10.835938 -23.140625 14.078125 -23.140625 C 17.222656 -23.140625 19.972656 -22.03125 22.328125 -19.8125 C 24.679688 -17.5625 25.859375 -14.882812 25.859375 -11.78125 Z M 22.0625 -12.953125 C 21.65625 -14.867188 20.703125 -16.457031 19.203125 -17.71875 C 17.703125 -18.945312 15.992188 -19.5625 14.078125 -19.5625 C 11.140625 -19.5625 8.835938 -18.242188 7.171875 -15.609375 C 6.660156 -14.796875 6.300781 -13.910156 6.09375 -12.953125 Z M 22.0625 -12.953125 "/></g></g></g><g fill="#01cdfe" fill-opacity="1"><g transform="translate(228.314324, 204.374987)"><g><path d="M 19.40625 0 L 19.40625 -14.078125 C 19.40625 -15.546875 19.082031 -16.8125 18.4375 -17.875 C 17.75 -18.894531 16.640625 -19.40625 15.109375 -19.40625 C 13.566406 -19.40625 12.316406 -19.113281 11.359375 -18.53125 C 10.410156 -17.957031 9.644531 -17.207031 9.0625 -16.28125 C 7.96875 -14.570312 7.421875 -12.285156 7.421875 -9.421875 L 7.421875 0 L 3.84375 0 L 3.84375 -22.53125 L 7.421875 -22.53125 L 7.421875 -18.640625 C 8.171875 -19.898438 9.128906 -20.941406 10.296875 -21.765625 C 11.523438 -22.578125 12.941406 -22.984375 14.546875 -22.984375 C 16.148438 -22.984375 17.445312 -22.765625 18.4375 -22.328125 C 19.425781 -21.847656 20.257812 -21.21875 20.9375 -20.4375 C 22.300781 -18.832031 22.984375 -16.710938 22.984375 -14.078125 L 22.984375 0 Z M 19.40625 0 "/></g></g></g><g fill="#01cdfe" fill-opacity="1"><g transform="translate(249.5606, 204.374987)"><g><path d="M 1.03125 -19.203125 L 1.03125 -22.53125 L 6.65625 -22.53125 L 6.65625 -31.28125 L 10.234375 -31.28125 L 10.234375 -22.53125 L 15.828125 -22.53125 L 15.828125 -19.203125 L 10.234375 -19.203125 L 10.234375 0 L 6.65625 0 L 6.65625 -19.203125 Z M 1.03125 -19.203125 "/></g></g></g><g fill="#ff71ce" fill-opacity="1"><g transform="translate(261.600493, 204.374987)"><g><path d="M 21.765625 -11.265625 C 21.765625 -13.453125 21.015625 -15.363281 19.515625 -17 C 17.972656 -18.632812 16.078125 -19.453125 13.828125 -19.453125 C 11.578125 -19.453125 9.695312 -18.632812 8.1875 -17 C 6.65625 -15.363281 5.890625 -13.453125 5.890625 -11.265625 C 5.890625 -9.078125 6.65625 -7.164062 8.1875 -5.53125 C 9.695312 -3.894531 11.578125 -3.078125 13.828125 -3.078125 C 16.078125 -3.078125 17.972656 -3.894531 19.515625 -5.53125 C 21.015625 -7.164062 21.765625 -9.078125 21.765625 -11.265625 Z M 25.34375 0 L 21.765625 0 L 21.765625 -3.84375 C 21.554688 -3.570312 21.347656 -3.316406 21.140625 -3.078125 C 18.992188 -0.679688 16.367188 0.515625 13.265625 0.515625 C 10.160156 0.515625 7.546875 -0.679688 5.421875 -3.078125 C 3.335938 -5.390625 2.296875 -8.117188 2.296875 -11.265625 C 2.296875 -14.398438 3.335938 -17.128906 5.421875 -19.453125 C 7.546875 -21.847656 10.160156 -23.046875 13.265625 -23.046875 C 16.367188 -23.046875 18.992188 -21.847656 21.140625 -19.453125 C 21.347656 -19.210938 21.554688 -18.957031 21.765625 -18.6875 L 21.765625 -22.53125 L 25.34375 -22.53125 Z M 25.34375 0 "/></g></g></g><g fill="#ff71ce" fill-opacity="1"><g transform="translate(285.969935, 204.374987)"><g><path d="M 7.421875 0 L 3.84375 0 L 3.84375 -38.40625 L 7.421875 -38.40625 Z M 7.421875 0 "/></g></g></g><g fill="#b967ff" fill-opacity="1"><g transform="translate(292.420803, 204.374987)"><g><path d="M 6.8125 0.515625 C 6.019531 0.515625 5.335938 0.222656 4.765625 -0.359375 C 4.148438 -0.898438 3.84375 -1.566406 3.84375 -2.359375 C 3.84375 -3.140625 4.128906 -3.820312 4.703125 -4.40625 C 5.285156 -4.988281 5.988281 -5.28125 6.8125 -5.28125 C 7.625 -5.28125 8.335938 -5.003906 8.953125 -4.453125 C 9.535156 -3.867188 9.828125 -3.1875 9.828125 -2.40625 C 9.828125 -1.582031 9.519531 -0.898438 8.90625 -0.359375 C 8.289062 0.222656 7.59375 0.515625 6.8125 0.515625 Z M 6.8125 0.515625 "/></g></g></g><g fill="#05ffa1" fill-opacity="1"><g transform="translate(301.280178, 204.374987)"><g><path d="M 21.765625 -11.265625 C 21.765625 -13.453125 21.015625 -15.363281 19.515625 -17 C 17.972656 -18.632812 16.078125 -19.453125 13.828125 -19.453125 C 11.578125 -19.453125 9.695312 -18.632812 8.1875 -17 C 6.65625 -15.363281 5.890625 -13.453125 5.890625 -11.265625 C 5.890625 -9.078125 6.65625 -7.164062 8.1875 -5.53125 C 9.695312 -3.894531 11.578125 -3.078125 13.828125 -3.078125 C 16.078125 -3.078125 17.972656 -3.894531 19.515625 -5.53125 C 21.015625 -7.164062 21.765625 -9.078125 21.765625 -11.265625 Z M 25.34375 0 L 21.765625 0 L 21.765625 -3.84375 C 21.554688 -3.570312 21.347656 -3.316406 21.140625 -3.078125 C 18.992188 -0.679688 16.367188 0.515625 13.265625 0.515625 C 10.160156 0.515625 7.546875 -0.679688 5.421875 -3.078125 C 3.335938 -5.390625 2.296875 -8.117188 2.296875 -11.265625 C 2.296875 -14.398438 3.335938 -17.128906 5.421875 -19.453125 C 7.546875 -21.847656 10.160156 -23.046875 13.265625 -23.046875 C 16.367188 -23.046875 18.992188 -21.847656 21.140625 -19.453125 C 21.347656 -19.210938 21.554688 -18.957031 21.765625 -18.6875 L 21.765625 -22.53125 L 25.34375 -22.53125 Z M 25.34375 0 "/></g></g></g><g fill="#05ffa1" fill-opacity="1"><g transform="translate(325.64962, 204.374987)"><g><path d="M 7.46875 -30.3125 C 7.914062 -29.863281 8.140625 -29.332031 8.140625 -28.71875 C 8.140625 -28.070312 7.914062 -27.53125 7.46875 -27.09375 C 7.03125 -26.644531 6.503906 -26.421875 5.890625 -26.421875 C 5.242188 -26.421875 4.695312 -26.644531 4.25 -27.09375 C 3.800781 -27.53125 3.578125 -28.070312 3.578125 -28.71875 C 3.578125 -29.332031 3.800781 -29.863281 4.25 -30.3125 C 4.695312 -30.757812 5.242188 -30.984375 5.890625 -30.984375 C 6.503906 -30.984375 7.03125 -30.757812 7.46875 -30.3125 Z M 7.6875 0 L 4.09375 0 L 4.09375 -22.53125 L 7.6875 -22.53125 Z M 7.6875 0 "/></g></g></g><g fill="#b967ff" fill-opacity="1"><g transform="translate(34.926766, 101.178617)"><g><path d="M 33.15625 -19.234375 L 27.96875 -19.234375 C 27.144531 -21.148438 25.875 -22.695312 24.15625 -23.875 C 22.425781 -25.0625 20.671875 -25.65625 18.890625 -25.65625 C 17.117188 -25.65625 15.597656 -25.378906 14.328125 -24.828125 C 13.054688 -24.234375 11.960938 -23.460938 11.046875 -22.515625 C 9.003906 -20.378906 7.984375 -17.878906 7.984375 -15.015625 C 7.984375 -12.097656 9.003906 -9.59375 11.046875 -7.5 C 13.046875 -5.363281 15.503906 -4.296875 18.421875 -4.296875 C 20.328125 -4.296875 22.097656 -4.796875 23.734375 -5.796875 C 25.328125 -6.796875 26.578125 -8.140625 27.484375 -9.828125 L 32.875 -9.828125 C 31.195312 -5.003906 27.945312 -1.773438 23.125 -0.140625 C 21.625 0.410156 19.921875 0.6875 18.015625 0.6875 C 16.097656 0.6875 14.207031 0.253906 12.34375 -0.609375 C 10.476562 -1.429688 8.863281 -2.570312 7.5 -4.03125 C 4.539062 -7.113281 3.0625 -10.773438 3.0625 -15.015625 C 3.0625 -19.285156 4.539062 -22.941406 7.5 -25.984375 C 10.5 -29.078125 14.140625 -30.625 18.421875 -30.625 C 21.878906 -30.625 24.992188 -29.554688 27.765625 -27.421875 C 30.398438 -25.378906 32.195312 -22.648438 33.15625 -19.234375 Z M 33.15625 -19.234375 "/></g></g></g><g fill="#b967ff" fill-opacity="1"><g transform="translate(64.048539, 101.178617)"><g><path d="M 29.671875 -15.140625 C 29.671875 -18.140625 28.601562 -20.710938 26.46875 -22.859375 C 24.332031 -24.992188 21.765625 -26.0625 18.765625 -26.0625 C 15.753906 -26.0625 13.179688 -24.992188 11.046875 -22.859375 C 8.910156 -20.710938 7.84375 -18.140625 7.84375 -15.140625 C 7.84375 -12.179688 8.910156 -9.632812 11.046875 -7.5 C 13.179688 -5.363281 15.753906 -4.296875 18.765625 -4.296875 C 21.765625 -4.296875 24.332031 -5.363281 26.46875 -7.5 C 28.601562 -9.632812 29.671875 -12.179688 29.671875 -15.140625 Z M 34.453125 -15.140625 C 34.453125 -10.773438 32.925781 -7.09375 29.875 -4.09375 C 26.738281 -1.039062 23.035156 0.484375 18.765625 0.484375 C 14.484375 0.484375 10.796875 -1.039062 7.703125 -4.09375 C 4.609375 -7.09375 3.0625 -10.773438 3.0625 -15.140625 C 3.0625 -19.460938 4.609375 -23.171875 7.703125 -26.265625 C 10.753906 -29.304688 14.441406 -30.828125 18.765625 -30.828125 C 23.078125 -30.828125 26.78125 -29.304688 29.875 -26.265625 C 32.925781 -23.171875 34.453125 -19.460938 34.453125 -15.140625 Z M 34.453125 -15.140625 "/></g></g></g><g fill="#b967ff" fill-opacity="1"><g transform="translate(95.148206, 101.178617)"><g><path d="M 43.1875 -0.140625 L 43.1875 -18.890625 C 43.1875 -21.984375 42.207031 -24.171875 40.25 -25.453125 C 39.5625 -25.859375 38.515625 -26.0625 37.109375 -26.0625 C 35.703125 -26.0625 34.382812 -25.648438 33.15625 -24.828125 C 31.925781 -24.015625 30.945312 -22.96875 30.21875 -21.6875 C 29.945312 -21.1875 29.695312 -20.644531 29.46875 -20.0625 C 29.46875 -19.695312 29.46875 -19.304688 29.46875 -18.890625 L 29.46875 -0.140625 L 24.6875 -0.140625 L 24.6875 -18.890625 C 24.6875 -21.984375 23.710938 -24.171875 21.765625 -25.453125 C 21.078125 -25.859375 20.03125 -26.0625 18.625 -26.0625 C 17.21875 -26.0625 15.898438 -25.648438 14.671875 -24.828125 C 13.441406 -24.015625 12.460938 -22.96875 11.734375 -21.6875 C 10.773438 -20.007812 10.160156 -17.941406 9.890625 -15.484375 L 9.890625 -0.140625 L 5.109375 -0.140625 L 5.109375 -30.15625 L 9.890625 -30.15625 L 9.890625 -25.375 C 10.796875 -26.925781 11.929688 -28.175781 13.296875 -29.125 C 14.847656 -30.257812 16.671875 -30.828125 18.765625 -30.828125 C 20.847656 -30.828125 22.53125 -30.507812 23.8125 -29.875 C 25.082031 -29.195312 26.148438 -28.3125 27.015625 -27.21875 C 27.472656 -26.582031 27.882812 -25.878906 28.25 -25.109375 C 29.15625 -26.742188 30.335938 -28.082031 31.796875 -29.125 C 33.335938 -30.257812 35.15625 -30.828125 37.25 -30.828125 C 39.34375 -30.828125 41.023438 -30.507812 42.296875 -29.875 C 43.566406 -29.195312 44.632812 -28.3125 45.5 -27.21875 C 47.132812 -25.082031 47.953125 -22.304688 47.953125 -18.890625 L 47.953125 -0.140625 Z M 43.1875 -0.140625 "/></g></g></g><g fill="#b967ff" fill-opacity="1"><g transform="translate(140.775156, 101.178617)"><g><path d="M 9.953125 -40.390625 C 10.546875 -39.796875 10.84375 -39.085938 10.84375 -38.265625 C 10.84375 -37.398438 10.546875 -36.675781 9.953125 -36.09375 C 9.367188 -35.5 8.664062 -35.203125 7.84375 -35.203125 C 6.976562 -35.203125 6.25 -35.5 5.65625 -36.09375 C 5.070312 -36.675781 4.78125 -37.398438 4.78125 -38.265625 C 4.78125 -39.085938 5.070312 -39.796875 5.65625 -40.390625 C 6.25 -40.972656 6.976562 -41.265625 7.84375 -41.265625 C 8.664062 -41.265625 9.367188 -40.972656 9.953125 -40.390625 Z M 10.234375 0 L 5.453125 0 L 5.453125 -30.015625 L 10.234375 -30.015625 Z M 10.234375 0 "/></g></g></g><g fill="#b967ff" fill-opacity="1"><g transform="translate(149.981595, 101.178617)"><g><path d="M 25.859375 0 L 25.859375 -18.765625 C 25.859375 -20.710938 25.425781 -22.394531 24.5625 -23.8125 C 23.644531 -25.175781 22.164062 -25.859375 20.125 -25.859375 C 18.070312 -25.859375 16.410156 -25.46875 15.140625 -24.6875 C 13.867188 -23.914062 12.847656 -22.914062 12.078125 -21.6875 C 10.617188 -19.414062 9.890625 -16.367188 9.890625 -12.546875 L 9.890625 0 L 5.109375 0 L 5.109375 -30.015625 L 9.890625 -30.015625 L 9.890625 -24.828125 C 10.890625 -26.515625 12.164062 -27.90625 13.71875 -29 C 15.351562 -30.082031 17.238281 -30.625 19.375 -30.625 C 21.507812 -30.625 23.238281 -30.332031 24.5625 -29.75 C 25.875 -29.101562 26.988281 -28.257812 27.90625 -27.21875 C 29.71875 -25.082031 30.625 -22.265625 30.625 -18.765625 L 30.625 0 Z M 25.859375 0 "/></g></g></g><g fill="#b967ff" fill-opacity="1"><g transform="translate(178.284927, 101.178617)"><g><path d="M 29.40625 -15.015625 C 29.40625 -17.921875 28.40625 -20.46875 26.40625 -22.65625 C 24.351562 -24.832031 21.828125 -25.921875 18.828125 -25.921875 C 15.921875 -25.921875 13.421875 -24.832031 11.328125 -22.65625 C 9.273438 -20.507812 8.25 -17.960938 8.25 -15.015625 C 8.25 -12.054688 9.273438 -9.507812 11.328125 -7.375 C 13.421875 -5.1875 15.921875 -4.09375 18.828125 -4.09375 C 21.828125 -4.09375 24.351562 -5.1875 26.40625 -7.375 C 28.40625 -9.550781 29.40625 -12.097656 29.40625 -15.015625 Z M 8.125 4.09375 C 8.570312 5.957031 9.546875 7.617188 11.046875 9.078125 C 13.140625 11.210938 15.664062 12.28125 18.625 12.28125 C 21.582031 12.28125 24.128906 11.210938 26.265625 9.078125 C 28.359375 6.984375 29.40625 4.457031 29.40625 1.5 L 29.40625 -5.046875 C 29.175781 -4.734375 28.925781 -4.414062 28.65625 -4.09375 C 25.789062 -0.90625 22.285156 0.6875 18.140625 0.6875 C 13.960938 0.6875 10.460938 -0.90625 7.640625 -4.09375 C 4.867188 -7.1875 3.484375 -10.828125 3.484375 -15.015625 C 3.484375 -19.191406 4.867188 -22.828125 7.640625 -25.921875 C 10.460938 -29.109375 13.960938 -30.703125 18.140625 -30.703125 C 22.148438 -30.703125 25.65625 -29.109375 28.65625 -25.921875 C 28.925781 -25.609375 29.175781 -25.289062 29.40625 -24.96875 L 29.40625 -30.015625 L 34.171875 -30.015625 L 34.171875 1.5 C 34.171875 5.769531 32.648438 9.429688 29.609375 12.484375 C 26.554688 15.523438 22.894531 17.046875 18.625 17.046875 C 14.351562 17.046875 10.691406 15.523438 7.640625 12.484375 C 5.234375 10.078125 3.78125 7.28125 3.28125 4.09375 Z M 8.125 4.09375 "/></g></g></g><g fill="#b967ff" fill-opacity="1"><g transform="translate(211.157873, 101.178617)"><g/></g></g><g fill="#b967ff" fill-opacity="1"><g transform="translate(223.160653, 101.178617)"><g><path d="M 9.484375 -4.296875 C 10.660156 -3.472656 12.207031 -3.0625 14.125 -3.0625 C 18.488281 -3.0625 20.671875 -4.703125 20.671875 -7.984375 C 20.671875 -9.890625 19.101562 -11.34375 15.96875 -12.34375 C 14.644531 -12.800781 13.234375 -13.210938 11.734375 -13.578125 C 10.191406 -13.941406 8.757812 -14.421875 7.4375 -15.015625 C 5.882812 -15.734375 4.722656 -16.640625 3.953125 -17.734375 C 3.179688 -18.828125 2.796875 -20.125 2.796875 -21.625 C 2.796875 -24.625 3.84375 -26.875 5.9375 -28.375 C 8.03125 -29.925781 10.53125 -30.703125 13.4375 -30.703125 C 16.351562 -30.703125 18.765625 -30.109375 20.671875 -28.921875 C 22.578125 -27.742188 23.875 -25.628906 24.5625 -22.578125 L 19.4375 -22.578125 C 18.894531 -24.265625 18.097656 -25.378906 17.046875 -25.921875 C 16.046875 -26.460938 14.796875 -26.734375 13.296875 -26.734375 C 11.796875 -26.734375 10.523438 -26.414062 9.484375 -25.78125 C 8.390625 -25.101562 7.84375 -24.101562 7.84375 -22.78125 C 7.84375 -21.414062 8.296875 -20.414062 9.203125 -19.78125 C 10.066406 -19.1875 11.160156 -18.664062 12.484375 -18.21875 C 13.804688 -17.800781 15.238281 -17.4375 16.78125 -17.125 C 18.28125 -16.757812 19.710938 -16.257812 21.078125 -15.625 C 24.171875 -14.164062 25.71875 -11.820312 25.71875 -8.59375 C 25.71875 -5.363281 24.554688 -2.976562 22.234375 -1.4375 C 21.054688 -0.65625 19.757812 -0.0625 18.34375 0.34375 C 16.976562 0.707031 15.476562 0.890625 13.84375 0.890625 C 6.882812 0.890625 2.882812 -2.203125 1.84375 -8.390625 L 6.890625 -8.390625 C 7.390625 -6.429688 8.253906 -5.066406 9.484375 -4.296875 Z M 9.484375 -4.296875 "/></g></g></g><g fill="#b967ff" fill-opacity="1"><g transform="translate(244.166248, 101.178617)"><g><path d="M 29.671875 -15.140625 C 29.671875 -18.140625 28.601562 -20.710938 26.46875 -22.859375 C 24.332031 -24.992188 21.765625 -26.0625 18.765625 -26.0625 C 15.753906 -26.0625 13.179688 -24.992188 11.046875 -22.859375 C 8.910156 -20.710938 7.84375 -18.140625 7.84375 -15.140625 C 7.84375 -12.179688 8.910156 -9.632812 11.046875 -7.5 C 13.179688 -5.363281 15.753906 -4.296875 18.765625 -4.296875 C 21.765625 -4.296875 24.332031 -5.363281 26.46875 -7.5 C 28.601562 -9.632812 29.671875 -12.179688 29.671875 -15.140625 Z M 34.453125 -15.140625 C 34.453125 -10.773438 32.925781 -7.09375 29.875 -4.09375 C 26.738281 -1.039062 23.035156 0.484375 18.765625 0.484375 C 14.484375 0.484375 10.796875 -1.039062 7.703125 -4.09375 C 4.609375 -7.09375 3.0625 -10.773438 3.0625 -15.140625 C 3.0625 -19.460938 4.609375 -23.171875 7.703125 -26.265625 C 10.753906 -29.304688 14.441406 -30.828125 18.765625 -30.828125 C 23.078125 -30.828125 26.78125 -29.304688 29.875 -26.265625 C 32.925781 -23.171875 34.453125 -19.460938 34.453125 -15.140625 Z M 34.453125 -15.140625 "/></g></g></g><g fill="#b967ff" fill-opacity="1"><g transform="translate(275.265909, 101.178617)"><g><path d="M 29.671875 -15.140625 C 29.671875 -18.140625 28.601562 -20.710938 26.46875 -22.859375 C 24.332031 -24.992188 21.765625 -26.0625 18.765625 -26.0625 C 15.753906 -26.0625 13.179688 -24.992188 11.046875 -22.859375 C 8.910156 -20.710938 7.84375 -18.140625 7.84375 -15.140625 C 7.84375 -12.179688 8.910156 -9.632812 11.046875 -7.5 C 13.179688 -5.363281 15.753906 -4.296875 18.765625 -4.296875 C 21.765625 -4.296875 24.332031 -5.363281 26.46875 -7.5 C 28.601562 -9.632812 29.671875 -12.179688 29.671875 -15.140625 Z M 34.453125 -15.140625 C 34.453125 -10.773438 32.925781 -7.09375 29.875 -4.09375 C 26.738281 -1.039062 23.035156 0.484375 18.765625 0.484375 C 14.484375 0.484375 10.796875 -1.039062 7.703125 -4.09375 C 4.609375 -7.09375 3.0625 -10.773438 3.0625 -15.140625 C 3.0625 -19.460938 4.609375 -23.171875 7.703125 -26.265625 C 10.753906 -29.304688 14.441406 -30.828125 18.765625 -30.828125 C 23.078125 -30.828125 26.78125 -29.304688 29.875 -26.265625 C 32.925781 -23.171875 34.453125 -19.460938 34.453125 -15.140625 Z M 34.453125 -15.140625 "/></g></g></g><g fill="#b967ff" fill-opacity="1"><g transform="translate(306.365569, 101.178617)"><g><path d="M 25.859375 0 L 25.859375 -18.765625 C 25.859375 -20.710938 25.425781 -22.394531 24.5625 -23.8125 C 23.644531 -25.175781 22.164062 -25.859375 20.125 -25.859375 C 18.070312 -25.859375 16.410156 -25.46875 15.140625 -24.6875 C 13.867188 -23.914062 12.847656 -22.914062 12.078125 -21.6875 C 10.617188 -19.414062 9.890625 -16.367188 9.890625 -12.546875 L 9.890625 0 L 5.109375 0 L 5.109375 -30.015625 L 9.890625 -30.015625 L 9.890625 -24.828125 C 10.890625 -26.515625 12.164062 -27.90625 13.71875 -29 C 15.351562 -30.082031 17.238281 -30.625 19.375 -30.625 C 21.507812 -30.625 23.238281 -30.332031 24.5625 -29.75 C 25.875 -29.101562 26.988281 -28.257812 27.90625 -27.21875 C 29.71875 -25.082031 30.625 -22.265625 30.625 -18.765625 L 30.625 0 Z M 25.859375 0 "/></g></g></g><g fill="#01cdfe" fill-opacity="1"><g transform="translate(37.500002, 239.053578)"><g><path d="M 3.1875 0 L 1.65625 0 L 1.65625 -16.5 L 3.1875 -16.5 L 3.1875 -8.03125 C 3.28125 -8.144531 3.375 -8.253906 3.46875 -8.359375 C 4.382812 -9.390625 5.507812 -9.90625 6.84375 -9.90625 C 8.175781 -9.90625 9.304688 -9.390625 10.234375 -8.359375 C 11.109375 -7.359375 11.546875 -6.1875 11.546875 -4.84375 C 11.546875 -3.488281 11.109375 -2.3125 10.234375 -1.3125 C 9.304688 -0.289062 8.175781 0.21875 6.84375 0.21875 C 5.507812 0.21875 4.382812 -0.289062 3.46875 -1.3125 C 3.375 -1.414062 3.28125 -1.53125 3.1875 -1.65625 Z M 10.015625 -4.84375 C 10.015625 -5.78125 9.691406 -6.597656 9.046875 -7.296875 C 8.378906 -8.003906 7.5625 -8.359375 6.59375 -8.359375 C 5.625 -8.359375 4.820312 -8.003906 4.1875 -7.296875 C 3.519531 -6.597656 3.1875 -5.78125 3.1875 -4.84375 C 3.1875 -3.90625 3.519531 -3.082031 4.1875 -2.375 C 4.820312 -1.664062 5.625 -1.3125 6.59375 -1.3125 C 7.5625 -1.3125 8.378906 -1.664062 9.046875 -2.375 C 9.691406 -3.082031 10.015625 -3.90625 10.015625 -4.84375 Z M 10.015625 -4.84375 "/></g></g></g><g fill="#01cdfe" fill-opacity="1"><g transform="translate(47.969773, 239.053578)"><g><path d="M 8.34375 -1.65625 C 7.625 -0.414062 6.546875 0.203125 5.109375 0.203125 C 4.015625 0.203125 3.160156 -0.15625 2.546875 -0.875 C 1.953125 -1.59375 1.65625 -2.507812 1.65625 -3.625 L 1.65625 -9.6875 L 3.1875 -9.6875 L 3.1875 -3.625 C 3.1875 -3 3.332031 -2.46875 3.625 -2.03125 C 3.90625 -1.570312 4.375 -1.34375 5.03125 -1.34375 C 6.238281 -1.34375 7.09375 -1.722656 7.59375 -2.484375 C 8.09375 -3.234375 8.34375 -4.28125 8.34375 -5.625 L 8.34375 -9.6875 L 9.875 -9.6875 L 9.875 0 L 8.34375 0 Z M 8.34375 -1.65625 "/></g></g></g><g fill="#01cdfe" fill-opacity="1"><g transform="translate(57.097782, 239.053578)"><g><path d="M 3.21875 -13.03125 C 3.40625 -12.832031 3.5 -12.601562 3.5 -12.34375 C 3.5 -12.0625 3.40625 -11.828125 3.21875 -11.640625 C 3.019531 -11.453125 2.789062 -11.359375 2.53125 -11.359375 C 2.25 -11.359375 2.015625 -11.453125 1.828125 -11.640625 C 1.640625 -11.828125 1.546875 -12.0625 1.546875 -12.34375 C 1.546875 -12.601562 1.640625 -12.832031 1.828125 -13.03125 C 2.015625 -13.21875 2.25 -13.3125 2.53125 -13.3125 C 2.789062 -13.3125 3.019531 -13.21875 3.21875 -13.03125 Z M 3.296875 0 L 1.765625 0 L 1.765625 -9.6875 L 3.296875 -9.6875 Z M 3.296875 0 "/></g></g></g><g fill="#01cdfe" fill-opacity="1"><g transform="translate(60.06689, 239.053578)"><g><path d="M 3.1875 0 L 1.65625 0 L 1.65625 -16.5 L 3.1875 -16.5 Z M 3.1875 0 "/></g></g></g><g fill="#01cdfe" fill-opacity="1"><g transform="translate(62.838026, 239.053578)"><g><path d="M 9.34375 -4.84375 C 9.34375 -5.78125 9.019531 -6.597656 8.375 -7.296875 C 7.71875 -8.003906 6.90625 -8.359375 5.9375 -8.359375 C 4.96875 -8.359375 4.160156 -8.003906 3.515625 -7.296875 C 2.859375 -6.597656 2.53125 -5.78125 2.53125 -4.84375 C 2.53125 -3.90625 2.859375 -3.082031 3.515625 -2.375 C 4.160156 -1.664062 4.96875 -1.3125 5.9375 -1.3125 C 6.90625 -1.3125 7.71875 -1.664062 8.375 -2.375 C 9.019531 -3.082031 9.34375 -3.90625 9.34375 -4.84375 Z M 10.890625 0 L 9.34375 0 L 9.34375 -1.65625 C 9.257812 -1.53125 9.175781 -1.414062 9.09375 -1.3125 C 8.164062 -0.289062 7.035156 0.21875 5.703125 0.21875 C 4.367188 0.21875 3.242188 -0.289062 2.328125 -1.3125 C 1.429688 -2.3125 0.984375 -3.488281 0.984375 -4.84375 C 0.984375 -6.1875 1.429688 -7.359375 2.328125 -8.359375 C 3.242188 -9.390625 4.367188 -9.90625 5.703125 -9.90625 C 7.035156 -9.90625 8.164062 -9.390625 9.09375 -8.359375 C 9.175781 -8.253906 9.257812 -8.144531 9.34375 -8.03125 L 9.34375 -16.5 L 10.890625 -16.5 Z M 10.890625 0 "/></g></g></g><g fill="#01cdfe" fill-opacity="1"><g transform="translate(73.307796, 239.053578)"><g><path d="M 3.21875 -13.03125 C 3.40625 -12.832031 3.5 -12.601562 3.5 -12.34375 C 3.5 -12.0625 3.40625 -11.828125 3.21875 -11.640625 C 3.019531 -11.453125 2.789062 -11.359375 2.53125 -11.359375 C 2.25 -11.359375 2.015625 -11.453125 1.828125 -11.640625 C 1.640625 -11.828125 1.546875 -12.0625 1.546875 -12.34375 C 1.546875 -12.601562 1.640625 -12.832031 1.828125 -13.03125 C 2.015625 -13.21875 2.25 -13.3125 2.53125 -13.3125 C 2.789062 -13.3125 3.019531 -13.21875 3.21875 -13.03125 Z M 3.296875 0 L 1.765625 0 L 1.765625 -9.6875 L 3.296875 -9.6875 Z M 3.296875 0 "/></g></g></g><g fill="#01cdfe" fill-opacity="1"><g transform="translate(76.276903, 239.053578)"><g><path d="M 8.34375 0 L 8.34375 -6.046875 C 8.34375 -6.679688 8.203125 -7.222656 7.921875 -7.671875 C 7.628906 -8.117188 7.148438 -8.34375 6.484375 -8.34375 C 5.828125 -8.34375 5.296875 -8.21875 4.890625 -7.96875 C 4.472656 -7.71875 4.140625 -7.394531 3.890625 -7 C 3.421875 -6.257812 3.1875 -5.273438 3.1875 -4.046875 L 3.1875 0 L 1.65625 0 L 1.65625 -9.6875 L 3.1875 -9.6875 L 3.1875 -8.015625 C 3.507812 -8.554688 3.921875 -9 4.421875 -9.34375 C 4.953125 -9.695312 5.5625 -9.875 6.25 -9.875 C 6.9375 -9.875 7.492188 -9.78125 7.921875 -9.59375 C 8.347656 -9.382812 8.707031 -9.113281 9 -8.78125 C 9.582031 -8.09375 9.875 -7.179688 9.875 -6.046875 L 9.875 0 Z M 8.34375 0 "/></g></g></g><g fill="#01cdfe" fill-opacity="1"><g transform="translate(85.40491, 239.053578)"><g><path d="M 9.484375 -4.84375 C 9.484375 -5.78125 9.160156 -6.597656 8.515625 -7.296875 C 7.859375 -8.003906 7.046875 -8.359375 6.078125 -8.359375 C 5.128906 -8.359375 4.320312 -8.003906 3.65625 -7.296875 C 2.988281 -6.609375 2.65625 -5.789062 2.65625 -4.84375 C 2.65625 -3.882812 2.988281 -3.0625 3.65625 -2.375 C 4.320312 -1.664062 5.128906 -1.3125 6.078125 -1.3125 C 7.046875 -1.3125 7.859375 -1.664062 8.515625 -2.375 C 9.160156 -3.082031 9.484375 -3.90625 9.484375 -4.84375 Z M 2.625 1.3125 C 2.769531 1.914062 3.082031 2.453125 3.5625 2.921875 C 4.238281 3.609375 5.050781 3.953125 6 3.953125 C 6.957031 3.953125 7.78125 3.609375 8.46875 2.921875 C 9.144531 2.242188 9.484375 1.429688 9.484375 0.484375 L 9.484375 -1.625 C 9.410156 -1.519531 9.328125 -1.414062 9.234375 -1.3125 C 8.316406 -0.289062 7.191406 0.21875 5.859375 0.21875 C 4.503906 0.21875 3.375 -0.289062 2.46875 -1.3125 C 1.570312 -2.3125 1.125 -3.488281 1.125 -4.84375 C 1.125 -6.1875 1.570312 -7.359375 2.46875 -8.359375 C 3.375 -9.390625 4.503906 -9.90625 5.859375 -9.90625 C 7.140625 -9.90625 8.265625 -9.390625 9.234375 -8.359375 C 9.328125 -8.253906 9.410156 -8.148438 9.484375 -8.046875 L 9.484375 -9.6875 L 11.015625 -9.6875 L 11.015625 0.484375 C 11.015625 1.859375 10.523438 3.039062 9.546875 4.03125 C 8.566406 5.007812 7.382812 5.5 6 5.5 C 4.625 5.5 3.445312 5.007812 2.46875 4.03125 C 1.6875 3.25 1.21875 2.34375 1.0625 1.3125 Z M 2.625 1.3125 "/></g></g></g><g fill="#01cdfe" fill-opacity="1"><g transform="translate(96.006653, 239.053578)"><g/></g></g><g fill="#01cdfe" fill-opacity="1"><g transform="translate(99.8776, 239.053578)"><g><path d="M 10.6875 -6.203125 L 9.015625 -6.203125 C 8.753906 -6.816406 8.34375 -7.316406 7.78125 -7.703125 C 7.226562 -8.078125 6.664062 -8.265625 6.09375 -8.265625 C 5.519531 -8.265625 5.03125 -8.179688 4.625 -8.015625 C 4.207031 -7.816406 3.851562 -7.566406 3.5625 -7.265625 C 2.90625 -6.566406 2.578125 -5.757812 2.578125 -4.84375 C 2.578125 -3.90625 2.90625 -3.097656 3.5625 -2.421875 C 4.207031 -1.734375 5 -1.390625 5.9375 -1.390625 C 6.550781 -1.390625 7.125 -1.550781 7.65625 -1.875 C 8.164062 -2.195312 8.566406 -2.628906 8.859375 -3.171875 L 10.609375 -3.171875 C 10.066406 -1.617188 9.015625 -0.578125 7.453125 -0.046875 C 6.972656 0.128906 6.425781 0.21875 5.8125 0.21875 C 5.195312 0.21875 4.585938 0.078125 3.984375 -0.203125 C 3.378906 -0.460938 2.859375 -0.828125 2.421875 -1.296875 C 1.460938 -2.296875 0.984375 -3.476562 0.984375 -4.84375 C 0.984375 -6.21875 1.460938 -7.394531 2.421875 -8.375 C 3.390625 -9.375 4.5625 -9.875 5.9375 -9.875 C 7.050781 -9.875 8.054688 -9.53125 8.953125 -8.84375 C 9.804688 -8.1875 10.382812 -7.304688 10.6875 -6.203125 Z M 10.6875 -6.203125 "/></g></g></g><g fill="#01cdfe" fill-opacity="1"><g transform="translate(109.269553, 239.053578)"><g><path d="M 9.5625 -4.890625 C 9.5625 -5.859375 9.21875 -6.6875 8.53125 -7.375 C 7.84375 -8.0625 7.015625 -8.40625 6.046875 -8.40625 C 5.078125 -8.40625 4.25 -8.0625 3.5625 -7.375 C 2.875 -6.6875 2.53125 -5.859375 2.53125 -4.890625 C 2.53125 -3.929688 2.875 -3.109375 3.5625 -2.421875 C 4.25 -1.734375 5.078125 -1.390625 6.046875 -1.390625 C 7.015625 -1.390625 7.84375 -1.734375 8.53125 -2.421875 C 9.21875 -3.109375 9.5625 -3.929688 9.5625 -4.890625 Z M 11.109375 -4.890625 C 11.109375 -3.472656 10.617188 -2.28125 9.640625 -1.3125 C 8.628906 -0.332031 7.429688 0.15625 6.046875 0.15625 C 4.671875 0.15625 3.484375 -0.332031 2.484375 -1.3125 C 1.484375 -2.28125 0.984375 -3.472656 0.984375 -4.890625 C 0.984375 -6.273438 1.484375 -7.46875 2.484375 -8.46875 C 3.460938 -9.445312 4.648438 -9.9375 6.046875 -9.9375 C 7.441406 -9.9375 8.640625 -9.445312 9.640625 -8.46875 C 10.617188 -7.46875 11.109375 -6.273438 11.109375 -4.890625 Z M 11.109375 -4.890625 "/></g></g></g><g fill="#01cdfe" fill-opacity="1"><g transform="translate(119.299401, 239.053578)"><g><path d="M 8.203125 -4.265625 L 0.84375 -4.265625 L 0.84375 -5.515625 L 8.203125 -5.515625 Z M 8.203125 -4.265625 "/></g></g></g><g fill="#01cdfe" fill-opacity="1"><g transform="translate(126.249792, 239.053578)"><g><path d="M 3.21875 -13.03125 C 3.40625 -12.832031 3.5 -12.601562 3.5 -12.34375 C 3.5 -12.0625 3.40625 -11.828125 3.21875 -11.640625 C 3.019531 -11.453125 2.789062 -11.359375 2.53125 -11.359375 C 2.25 -11.359375 2.015625 -11.453125 1.828125 -11.640625 C 1.640625 -11.828125 1.546875 -12.0625 1.546875 -12.34375 C 1.546875 -12.601562 1.640625 -12.832031 1.828125 -13.03125 C 2.015625 -13.21875 2.25 -13.3125 2.53125 -13.3125 C 2.789062 -13.3125 3.019531 -13.21875 3.21875 -13.03125 Z M 3.296875 0 L 1.765625 0 L 1.765625 -9.6875 L 3.296875 -9.6875 Z M 3.296875 0 "/></g></g></g><g fill="#01cdfe" fill-opacity="1"><g transform="translate(129.218899, 239.053578)"><g><path d="M 8.34375 0 L 8.34375 -6.046875 C 8.34375 -6.679688 8.203125 -7.222656 7.921875 -7.671875 C 7.628906 -8.117188 7.148438 -8.34375 6.484375 -8.34375 C 5.828125 -8.34375 5.296875 -8.21875 4.890625 -7.96875 C 4.472656 -7.71875 4.140625 -7.394531 3.890625 -7 C 3.421875 -6.257812 3.1875 -5.273438 3.1875 -4.046875 L 3.1875 0 L 1.65625 0 L 1.65625 -9.6875 L 3.1875 -9.6875 L 3.1875 -8.015625 C 3.507812 -8.554688 3.921875 -9 4.421875 -9.34375 C 4.953125 -9.695312 5.5625 -9.875 6.25 -9.875 C 6.9375 -9.875 7.492188 -9.78125 7.921875 -9.59375 C 8.347656 -9.382812 8.707031 -9.113281 9 -8.78125 C 9.582031 -8.09375 9.875 -7.179688 9.875 -6.046875 L 9.875 0 Z M 8.34375 0 "/></g></g></g><g fill="#01cdfe" fill-opacity="1"><g transform="translate(138.346912, 239.053578)"><g><path d="M 0.4375 -8.25 L 0.4375 -9.6875 L 2.859375 -9.6875 L 2.859375 -13.4375 L 4.40625 -13.4375 L 4.40625 -9.6875 L 6.796875 -9.6875 L 6.796875 -8.25 L 4.40625 -8.25 L 4.40625 0 L 2.859375 0 L 2.859375 -8.25 Z M 0.4375 -8.25 "/></g></g></g><g fill="#01cdfe" fill-opacity="1"><g transform="translate(143.515624, 239.053578)"><g><path d="M 11.109375 -5.0625 L 11.109375 -4.25 L 2.59375 -4.25 C 2.738281 -3.40625 3.144531 -2.722656 3.8125 -2.203125 C 4.476562 -1.660156 5.222656 -1.390625 6.046875 -1.390625 C 6.609375 -1.390625 7.144531 -1.519531 7.65625 -1.78125 C 8.15625 -2.03125 8.570312 -2.382812 8.90625 -2.84375 L 10.671875 -2.84375 C 10.253906 -1.914062 9.640625 -1.1875 8.828125 -0.65625 C 7.984375 -0.113281 7.140625 0.15625 6.296875 0.15625 C 5.429688 0.15625 4.695312 0.0234375 4.09375 -0.234375 C 3.476562 -0.503906 2.941406 -0.863281 2.484375 -1.3125 C 1.484375 -2.28125 0.984375 -3.472656 0.984375 -4.890625 C 0.984375 -6.273438 1.484375 -7.46875 2.484375 -8.46875 C 3.460938 -9.445312 4.648438 -9.9375 6.046875 -9.9375 C 7.398438 -9.9375 8.582031 -9.460938 9.59375 -8.515625 C 10.601562 -7.546875 11.109375 -6.394531 11.109375 -5.0625 Z M 9.484375 -5.5625 C 9.304688 -6.382812 8.894531 -7.066406 8.25 -7.609375 C 7.601562 -8.140625 6.867188 -8.40625 6.046875 -8.40625 C 4.785156 -8.40625 3.796875 -7.835938 3.078125 -6.703125 C 2.859375 -6.359375 2.707031 -5.976562 2.625 -5.5625 Z M 9.484375 -5.5625 "/></g></g></g><g fill="#01cdfe" fill-opacity="1"><g transform="translate(153.435499, 239.053578)"><g><path d="M 3.1875 0 L 1.65625 0 L 1.65625 -16.5 L 3.1875 -16.5 Z M 3.1875 0 "/></g></g></g><g fill="#01cdfe" fill-opacity="1"><g transform="translate(156.20664, 239.053578)"><g><path d="M 3.1875 0 L 1.65625 0 L 1.65625 -16.5 L 3.1875 -16.5 Z M 3.1875 0 "/></g></g></g><g fill="#01cdfe" fill-opacity="1"><g transform="translate(158.977781, 239.053578)"><g><path d="M 3.21875 -13.03125 C 3.40625 -12.832031 3.5 -12.601562 3.5 -12.34375 C 3.5 -12.0625 3.40625 -11.828125 3.21875 -11.640625 C 3.019531 -11.453125 2.789062 -11.359375 2.53125 -11.359375 C 2.25 -11.359375 2.015625 -11.453125 1.828125 -11.640625 C 1.640625 -11.828125 1.546875 -12.0625 1.546875 -12.34375 C 1.546875 -12.601562 1.640625 -12.832031 1.828125 -13.03125 C 2.015625 -13.21875 2.25 -13.3125 2.53125 -13.3125 C 2.789062 -13.3125 3.019531 -13.21875 3.21875 -13.03125 Z M 3.296875 0 L 1.765625 0 L 1.765625 -9.6875 L 3.296875 -9.6875 Z M 3.296875 0 "/></g></g></g><g fill="#01cdfe" fill-opacity="1"><g transform="translate(161.946893, 239.053578)"><g><path d="M 9.484375 -4.84375 C 9.484375 -5.78125 9.160156 -6.597656 8.515625 -7.296875 C 7.859375 -8.003906 7.046875 -8.359375 6.078125 -8.359375 C 5.128906 -8.359375 4.320312 -8.003906 3.65625 -7.296875 C 2.988281 -6.609375 2.65625 -5.789062 2.65625 -4.84375 C 2.65625 -3.882812 2.988281 -3.0625 3.65625 -2.375 C 4.320312 -1.664062 5.128906 -1.3125 6.078125 -1.3125 C 7.046875 -1.3125 7.859375 -1.664062 8.515625 -2.375 C 9.160156 -3.082031 9.484375 -3.90625 9.484375 -4.84375 Z M 2.625 1.3125 C 2.769531 1.914062 3.082031 2.453125 3.5625 2.921875 C 4.238281 3.609375 5.050781 3.953125 6 3.953125 C 6.957031 3.953125 7.78125 3.609375 8.46875 2.921875 C 9.144531 2.242188 9.484375 1.429688 9.484375 0.484375 L 9.484375 -1.625 C 9.410156 -1.519531 9.328125 -1.414062 9.234375 -1.3125 C 8.316406 -0.289062 7.191406 0.21875 5.859375 0.21875 C 4.503906 0.21875 3.375 -0.289062 2.46875 -1.3125 C 1.570312 -2.3125 1.125 -3.488281 1.125 -4.84375 C 1.125 -6.1875 1.570312 -7.359375 2.46875 -8.359375 C 3.375 -9.390625 4.503906 -9.90625 5.859375 -9.90625 C 7.140625 -9.90625 8.265625 -9.390625 9.234375 -8.359375 C 9.328125 -8.253906 9.410156 -8.148438 9.484375 -8.046875 L 9.484375 -9.6875 L 11.015625 -9.6875 L 11.015625 0.484375 C 11.015625 1.859375 10.523438 3.039062 9.546875 4.03125 C 8.566406 5.007812 7.382812 5.5 6 5.5 C 4.625 5.5 3.445312 5.007812 2.46875 4.03125 C 1.6875 3.25 1.21875 2.34375 1.0625 1.3125 Z M 2.625 1.3125 "/></g></g></g><g fill="#01cdfe" fill-opacity="1"><g transform="translate(172.548642, 239.053578)"><g><path d="M 11.109375 -5.0625 L 11.109375 -4.25 L 2.59375 -4.25 C 2.738281 -3.40625 3.144531 -2.722656 3.8125 -2.203125 C 4.476562 -1.660156 5.222656 -1.390625 6.046875 -1.390625 C 6.609375 -1.390625 7.144531 -1.519531 7.65625 -1.78125 C 8.15625 -2.03125 8.570312 -2.382812 8.90625 -2.84375 L 10.671875 -2.84375 C 10.253906 -1.914062 9.640625 -1.1875 8.828125 -0.65625 C 7.984375 -0.113281 7.140625 0.15625 6.296875 0.15625 C 5.429688 0.15625 4.695312 0.0234375 4.09375 -0.234375 C 3.476562 -0.503906 2.941406 -0.863281 2.484375 -1.3125 C 1.484375 -2.28125 0.984375 -3.472656 0.984375 -4.890625 C 0.984375 -6.273438 1.484375 -7.46875 2.484375 -8.46875 C 3.460938 -9.445312 4.648438 -9.9375 6.046875 -9.9375 C 7.398438 -9.9375 8.582031 -9.460938 9.59375 -8.515625 C 10.601562 -7.546875 11.109375 -6.394531 11.109375 -5.0625 Z M 9.484375 -5.5625 C 9.304688 -6.382812 8.894531 -7.066406 8.25 -7.609375 C 7.601562 -8.140625 6.867188 -8.40625 6.046875 -8.40625 C 4.785156 -8.40625 3.796875 -7.835938 3.078125 -6.703125 C 2.859375 -6.359375 2.707031 -5.976562 2.625 -5.5625 Z M 9.484375 -5.5625 "/></g></g></g><g fill="#01cdfe" fill-opacity="1"><g transform="translate(182.468517, 239.053578)"><g><path d="M 8.34375 0 L 8.34375 -6.046875 C 8.34375 -6.679688 8.203125 -7.222656 7.921875 -7.671875 C 7.628906 -8.117188 7.148438 -8.34375 6.484375 -8.34375 C 5.828125 -8.34375 5.296875 -8.21875 4.890625 -7.96875 C 4.472656 -7.71875 4.140625 -7.394531 3.890625 -7 C 3.421875 -6.257812 3.1875 -5.273438 3.1875 -4.046875 L 3.1875 0 L 1.65625 0 L 1.65625 -9.6875 L 3.1875 -9.6875 L 3.1875 -8.015625 C 3.507812 -8.554688 3.921875 -9 4.421875 -9.34375 C 4.953125 -9.695312 5.5625 -9.875 6.25 -9.875 C 6.9375 -9.875 7.492188 -9.78125 7.921875 -9.59375 C 8.347656 -9.382812 8.707031 -9.113281 9 -8.78125 C 9.582031 -8.09375 9.875 -7.179688 9.875 -6.046875 L 9.875 0 Z M 8.34375 0 "/></g></g></g><g fill="#01cdfe" fill-opacity="1"><g transform="translate(191.59653, 239.053578)"><g><path d="M 0.4375 -8.25 L 0.4375 -9.6875 L 2.859375 -9.6875 L 2.859375 -13.4375 L 4.40625 -13.4375 L 4.40625 -9.6875 L 6.796875 -9.6875 L 6.796875 -8.25 L 4.40625 -8.25 L 4.40625 0 L 2.859375 0 L 2.859375 -8.25 Z M 0.4375 -8.25 "/></g></g></g><g fill="#01cdfe" fill-opacity="1"><g transform="translate(196.765243, 239.053578)"><g/></g></g><g fill="#01cdfe" fill-opacity="1"><g transform="translate(200.636195, 239.053578)"><g><path d="M 9.5625 -4.890625 C 9.5625 -5.859375 9.21875 -6.6875 8.53125 -7.375 C 7.84375 -8.0625 7.015625 -8.40625 6.046875 -8.40625 C 5.078125 -8.40625 4.25 -8.0625 3.5625 -7.375 C 2.875 -6.6875 2.53125 -5.859375 2.53125 -4.890625 C 2.53125 -3.929688 2.875 -3.109375 3.5625 -2.421875 C 4.25 -1.734375 5.078125 -1.390625 6.046875 -1.390625 C 7.015625 -1.390625 7.84375 -1.734375 8.53125 -2.421875 C 9.21875 -3.109375 9.5625 -3.929688 9.5625 -4.890625 Z M 11.109375 -4.890625 C 11.109375 -3.472656 10.617188 -2.28125 9.640625 -1.3125 C 8.628906 -0.332031 7.429688 0.15625 6.046875 0.15625 C 4.671875 0.15625 3.484375 -0.332031 2.484375 -1.3125 C 1.484375 -2.28125 0.984375 -3.472656 0.984375 -4.890625 C 0.984375 -6.273438 1.484375 -7.46875 2.484375 -8.46875 C 3.460938 -9.445312 4.648438 -9.9375 6.046875 -9.9375 C 7.441406 -9.9375 8.640625 -9.445312 9.640625 -8.46875 C 10.617188 -7.46875 11.109375 -6.273438 11.109375 -4.890625 Z M 11.109375 -4.890625 "/></g></g></g><g fill="#01cdfe" fill-opacity="1"><g transform="translate(210.666048, 239.053578)"><g><path d="M 6.625 -7.671875 C 6.269531 -7.992188 5.890625 -8.15625 5.484375 -8.15625 C 5.085938 -8.15625 4.75 -8.046875 4.46875 -7.828125 C 4.175781 -7.597656 3.929688 -7.320312 3.734375 -7 C 3.367188 -6.351562 3.1875 -5.632812 3.1875 -4.84375 L 3.1875 0 L 1.65625 0 L 1.65625 -9.6875 L 3.1875 -9.6875 L 3.1875 -7.671875 L 3.25 -8.078125 C 3.769531 -9.273438 4.570312 -9.875 5.65625 -9.875 C 5.988281 -9.875 6.3125 -9.8125 6.625 -9.6875 Z M 6.625 -7.671875 "/></g></g></g><g fill="#01cdfe" fill-opacity="1"><g transform="translate(215.438841, 239.053578)"><g><path d="M 9.484375 -4.84375 C 9.484375 -5.78125 9.160156 -6.597656 8.515625 -7.296875 C 7.859375 -8.003906 7.046875 -8.359375 6.078125 -8.359375 C 5.128906 -8.359375 4.320312 -8.003906 3.65625 -7.296875 C 2.988281 -6.609375 2.65625 -5.789062 2.65625 -4.84375 C 2.65625 -3.882812 2.988281 -3.0625 3.65625 -2.375 C 4.320312 -1.664062 5.128906 -1.3125 6.078125 -1.3125 C 7.046875 -1.3125 7.859375 -1.664062 8.515625 -2.375 C 9.160156 -3.082031 9.484375 -3.90625 9.484375 -4.84375 Z M 2.625 1.3125 C 2.769531 1.914062 3.082031 2.453125 3.5625 2.921875 C 4.238281 3.609375 5.050781 3.953125 6 3.953125 C 6.957031 3.953125 7.78125 3.609375 8.46875 2.921875 C 9.144531 2.242188 9.484375 1.429688 9.484375 0.484375 L 9.484375 -1.625 C 9.410156 -1.519531 9.328125 -1.414062 9.234375 -1.3125 C 8.316406 -0.289062 7.191406 0.21875 5.859375 0.21875 C 4.503906 0.21875 3.375 -0.289062 2.46875 -1.3125 C 1.570312 -2.3125 1.125 -3.488281 1.125 -4.84375 C 1.125 -6.1875 1.570312 -7.359375 2.46875 -8.359375 C 3.375 -9.390625 4.503906 -9.90625 5.859375 -9.90625 C 7.140625 -9.90625 8.265625 -9.390625 9.234375 -8.359375 C 9.328125 -8.253906 9.410156 -8.148438 9.484375 -8.046875 L 9.484375 -9.6875 L 11.015625 -9.6875 L 11.015625 0.484375 C 11.015625 1.859375 10.523438 3.039062 9.546875 4.03125 C 8.566406 5.007812 7.382812 5.5 6 5.5 C 4.625 5.5 3.445312 5.007812 2.46875 4.03125 C 1.6875 3.25 1.21875 2.34375 1.0625 1.3125 Z M 2.625 1.3125 "/></g></g></g><g fill="#01cdfe" fill-opacity="1"><g transform="translate(226.040589, 239.053578)"><g><path d="M 9.34375 -4.84375 C 9.34375 -5.78125 9.019531 -6.597656 8.375 -7.296875 C 7.71875 -8.003906 6.90625 -8.359375 5.9375 -8.359375 C 4.96875 -8.359375 4.160156 -8.003906 3.515625 -7.296875 C 2.859375 -6.597656 2.53125 -5.78125 2.53125 -4.84375 C 2.53125 -3.90625 2.859375 -3.082031 3.515625 -2.375 C 4.160156 -1.664062 4.96875 -1.3125 5.9375 -1.3125 C 6.90625 -1.3125 7.71875 -1.664062 8.375 -2.375 C 9.019531 -3.082031 9.34375 -3.90625 9.34375 -4.84375 Z M 10.890625 0 L 9.34375 0 L 9.34375 -1.65625 C 9.257812 -1.53125 9.175781 -1.414062 9.09375 -1.3125 C 8.164062 -0.289062 7.035156 0.21875 5.703125 0.21875 C 4.367188 0.21875 3.242188 -0.289062 2.328125 -1.3125 C 1.429688 -2.3125 0.984375 -3.488281 0.984375 -4.84375 C 0.984375 -6.1875 1.429688 -7.359375 2.328125 -8.359375 C 3.242188 -9.390625 4.367188 -9.90625 5.703125 -9.90625 C 7.035156 -9.90625 8.164062 -9.390625 9.09375 -8.359375 C 9.175781 -8.253906 9.257812 -8.144531 9.34375 -8.03125 L 9.34375 -9.6875 L 10.890625 -9.6875 Z M 10.890625 0 "/></g></g></g><g fill="#01cdfe" fill-opacity="1"><g transform="translate(236.510365, 239.053578)"><g><path d="M 8.34375 0 L 8.34375 -6.046875 C 8.34375 -6.679688 8.203125 -7.222656 7.921875 -7.671875 C 7.628906 -8.117188 7.148438 -8.34375 6.484375 -8.34375 C 5.828125 -8.34375 5.296875 -8.21875 4.890625 -7.96875 C 4.472656 -7.71875 4.140625 -7.394531 3.890625 -7 C 3.421875 -6.257812 3.1875 -5.273438 3.1875 -4.046875 L 3.1875 0 L 1.65625 0 L 1.65625 -9.6875 L 3.1875 -9.6875 L 3.1875 -8.015625 C 3.507812 -8.554688 3.921875 -9 4.421875 -9.34375 C 4.953125 -9.695312 5.5625 -9.875 6.25 -9.875 C 6.9375 -9.875 7.492188 -9.78125 7.921875 -9.59375 C 8.347656 -9.382812 8.707031 -9.113281 9 -8.78125 C 9.582031 -8.09375 9.875 -7.179688 9.875 -6.046875 L 9.875 0 Z M 8.34375 0 "/></g></g></g><g fill="#01cdfe" fill-opacity="1"><g transform="translate(245.638378, 239.053578)"><g><path d="M 3.21875 -13.03125 C 3.40625 -12.832031 3.5 -12.601562 3.5 -12.34375 C 3.5 -12.0625 3.40625 -11.828125 3.21875 -11.640625 C 3.019531 -11.453125 2.789062 -11.359375 2.53125 -11.359375 C 2.25 -11.359375 2.015625 -11.453125 1.828125 -11.640625 C 1.640625 -11.828125 1.546875 -12.0625 1.546875 -12.34375 C 1.546875 -12.601562 1.640625 -12.832031 1.828125 -13.03125 C 2.015625 -13.21875 2.25 -13.3125 2.53125 -13.3125 C 2.789062 -13.3125 3.019531 -13.21875 3.21875 -13.03125 Z M 3.296875 0 L 1.765625 0 L 1.765625 -9.6875 L 3.296875 -9.6875 Z M 3.296875 0 "/></g></g></g><g fill="#01cdfe" fill-opacity="1"><g transform="translate(248.607479, 239.053578)"><g><path d="M 0.21875 0 L 6.5625 -8.25 L 0.59375 -8.25 L 0.59375 -9.6875 L 9.5 -9.6875 L 3.171875 -1.4375 L 9.796875 -1.4375 L 9.796875 0 Z M 0.21875 0 "/></g></g></g><g fill="#01cdfe" fill-opacity="1"><g transform="translate(256.547687, 239.053578)"><g><path d="M 9.34375 -4.84375 C 9.34375 -5.78125 9.019531 -6.597656 8.375 -7.296875 C 7.71875 -8.003906 6.90625 -8.359375 5.9375 -8.359375 C 4.96875 -8.359375 4.160156 -8.003906 3.515625 -7.296875 C 2.859375 -6.597656 2.53125 -5.78125 2.53125 -4.84375 C 2.53125 -3.90625 2.859375 -3.082031 3.515625 -2.375 C 4.160156 -1.664062 4.96875 -1.3125 5.9375 -1.3125 C 6.90625 -1.3125 7.71875 -1.664062 8.375 -2.375 C 9.019531 -3.082031 9.34375 -3.90625 9.34375 -4.84375 Z M 10.890625 0 L 9.34375 0 L 9.34375 -1.65625 C 9.257812 -1.53125 9.175781 -1.414062 9.09375 -1.3125 C 8.164062 -0.289062 7.035156 0.21875 5.703125 0.21875 C 4.367188 0.21875 3.242188 -0.289062 2.328125 -1.3125 C 1.429688 -2.3125 0.984375 -3.488281 0.984375 -4.84375 C 0.984375 -6.1875 1.429688 -7.359375 2.328125 -8.359375 C 3.242188 -9.390625 4.367188 -9.90625 5.703125 -9.90625 C 7.035156 -9.90625 8.164062 -9.390625 9.09375 -8.359375 C 9.175781 -8.253906 9.257812 -8.144531 9.34375 -8.03125 L 9.34375 -9.6875 L 10.890625 -9.6875 Z M 10.890625 0 "/></g></g></g><g fill="#01cdfe" fill-opacity="1"><g transform="translate(267.017451, 239.053578)"><g><path d="M 0.4375 -8.25 L 0.4375 -9.6875 L 2.859375 -9.6875 L 2.859375 -13.4375 L 4.40625 -13.4375 L 4.40625 -9.6875 L 6.796875 -9.6875 L 6.796875 -8.25 L 4.40625 -8.25 L 4.40625 0 L 2.859375 0 L 2.859375 -8.25 Z M 0.4375 -8.25 "/></g></g></g><g fill="#01cdfe" fill-opacity="1"><g transform="translate(272.186151, 239.053578)"><g><path d="M 3.21875 -13.03125 C 3.40625 -12.832031 3.5 -12.601562 3.5 -12.34375 C 3.5 -12.0625 3.40625 -11.828125 3.21875 -11.640625 C 3.019531 -11.453125 2.789062 -11.359375 2.53125 -11.359375 C 2.25 -11.359375 2.015625 -11.453125 1.828125 -11.640625 C 1.640625 -11.828125 1.546875 -12.0625 1.546875 -12.34375 C 1.546875 -12.601562 1.640625 -12.832031 1.828125 -13.03125 C 2.015625 -13.21875 2.25 -13.3125 2.53125 -13.3125 C 2.789062 -13.3125 3.019531 -13.21875 3.21875 -13.03125 Z M 3.296875 0 L 1.765625 0 L 1.765625 -9.6875 L 3.296875 -9.6875 Z M 3.296875 0 "/></g></g></g><g fill="#01cdfe" fill-opacity="1"><g transform="translate(275.155252, 239.053578)"><g><path d="M 9.5625 -4.890625 C 9.5625 -5.859375 9.21875 -6.6875 8.53125 -7.375 C 7.84375 -8.0625 7.015625 -8.40625 6.046875 -8.40625 C 5.078125 -8.40625 4.25 -8.0625 3.5625 -7.375 C 2.875 -6.6875 2.53125 -5.859375 2.53125 -4.890625 C 2.53125 -3.929688 2.875 -3.109375 3.5625 -2.421875 C 4.25 -1.734375 5.078125 -1.390625 6.046875 -1.390625 C 7.015625 -1.390625 7.84375 -1.734375 8.53125 -2.421875 C 9.21875 -3.109375 9.5625 -3.929688 9.5625 -4.890625 Z M 11.109375 -4.890625 C 11.109375 -3.472656 10.617188 -2.28125 9.640625 -1.3125 C 8.628906 -0.332031 7.429688 0.15625 6.046875 0.15625 C 4.671875 0.15625 3.484375 -0.332031 2.484375 -1.3125 C 1.484375 -2.28125 0.984375 -3.472656 0.984375 -4.890625 C 0.984375 -6.273438 1.484375 -7.46875 2.484375 -8.46875 C 3.460938 -9.445312 4.648438 -9.9375 6.046875 -9.9375 C 7.441406 -9.9375 8.640625 -9.445312 9.640625 -8.46875 C 10.617188 -7.46875 11.109375 -6.273438 11.109375 -4.890625 Z M 11.109375 -4.890625 "/></g></g></g><g fill="#01cdfe" fill-opacity="1"><g transform="translate(285.185105, 239.053578)"><g><path d="M 8.34375 0 L 8.34375 -6.046875 C 8.34375 -6.679688 8.203125 -7.222656 7.921875 -7.671875 C 7.628906 -8.117188 7.148438 -8.34375 6.484375 -8.34375 C 5.828125 -8.34375 5.296875 -8.21875 4.890625 -7.96875 C 4.472656 -7.71875 4.140625 -7.394531 3.890625 -7 C 3.421875 -6.257812 3.1875 -5.273438 3.1875 -4.046875 L 3.1875 0 L 1.65625 0 L 1.65625 -9.6875 L 3.1875 -9.6875 L 3.1875 -8.015625 C 3.507812 -8.554688 3.921875 -9 4.421875 -9.34375 C 4.953125 -9.695312 5.5625 -9.875 6.25 -9.875 C 6.9375 -9.875 7.492188 -9.78125 7.921875 -9.59375 C 8.347656 -9.382812 8.707031 -9.113281 9 -8.78125 C 9.582031 -8.09375 9.875 -7.179688 9.875 -6.046875 L 9.875 0 Z M 8.34375 0 "/></g></g></g><g fill="#01cdfe" fill-opacity="1"><g transform="translate(294.313118, 239.053578)"><g><path d="M 3.0625 -1.390625 C 3.4375 -1.117188 3.929688 -0.984375 4.546875 -0.984375 C 5.960938 -0.984375 6.671875 -1.515625 6.671875 -2.578125 C 6.671875 -3.191406 6.160156 -3.660156 5.140625 -3.984375 C 4.722656 -4.128906 4.269531 -4.257812 3.78125 -4.375 C 3.28125 -4.488281 2.816406 -4.644531 2.390625 -4.84375 C 1.898438 -5.070312 1.53125 -5.363281 1.28125 -5.71875 C 1.03125 -6.070312 0.90625 -6.488281 0.90625 -6.96875 C 0.90625 -7.9375 1.238281 -8.664062 1.90625 -9.15625 C 2.582031 -9.65625 3.390625 -9.90625 4.328125 -9.90625 C 5.265625 -9.90625 6.046875 -9.710938 6.671875 -9.328125 C 7.285156 -8.941406 7.703125 -8.257812 7.921875 -7.28125 L 6.265625 -7.28125 C 6.085938 -7.820312 5.832031 -8.179688 5.5 -8.359375 C 5.175781 -8.535156 4.773438 -8.625 4.296875 -8.625 C 3.804688 -8.625 3.394531 -8.519531 3.0625 -8.3125 C 2.707031 -8.09375 2.53125 -7.769531 2.53125 -7.34375 C 2.53125 -6.90625 2.675781 -6.582031 2.96875 -6.375 C 3.25 -6.1875 3.601562 -6.019531 4.03125 -5.875 C 4.445312 -5.738281 4.90625 -5.617188 5.40625 -5.515625 C 5.894531 -5.398438 6.359375 -5.238281 6.796875 -5.03125 C 7.796875 -4.5625 8.296875 -3.804688 8.296875 -2.765625 C 8.296875 -1.722656 7.921875 -0.957031 7.171875 -0.46875 C 6.785156 -0.21875 6.367188 -0.0234375 5.921875 0.109375 C 5.484375 0.222656 5 0.28125 4.46875 0.28125 C 2.21875 0.28125 0.925781 -0.710938 0.59375 -2.703125 L 2.21875 -2.703125 C 2.382812 -2.078125 2.664062 -1.640625 3.0625 -1.390625 Z M 3.0625 -1.390625 "/></g></g></g></svg>